# xmcd
#
# Track frame offsets:
#	150
#	16574
#	42026
#	61750
#	87428
#	119557
#	130592
#	139609
#	157891
#	199395
#	214164
#	231229
#	246572
#	270079
#	312817
#
# Disc length: 4422 seconds
#
# Revision: 1
# Processed by: cddbd v1.4PL0 Copyright (c) Steve Scherf et al.
# Submitted via: EasyCDDAExtractor 5.0.6
#
DISCID=c411440f
DTITLE=Van Morrison - Best of Van Morrison Vol. 2
DYEAR=1993
DGENRE=Blues
TTITLE0=real real gone
TTITLE1=when will i ever learn to live in god
TTITLE2=sometimes i feel like a motherless child
TTITLE3=in the garden
TTITLE4=a sense of wonder
TTITLE5=i'll tell me ma
TTITLE6=coney island
TTITLE7=enlightenment
TTITLE8=rave on john donne - rave on part two
TTITLE9=don't look back
TTITLE10=it's all over now baby blue
TTITLE11=one irish rover
TTITLE12=the mystery
TTITLE13=hymns to the silence
TTITLE14=evening meditation
EXTD=
EXTT0=
EXTT1=
EXTT2=
EXTT3=
EXTT4=
EXTT5=
EXTT6=
EXTT7=
EXTT8=
EXTT9=
EXTT10=
EXTT11=
EXTT12=
EXTT13=
EXTT14=
PLAYORDER=
